<svg width="36" height="36" viewBox="0 0 36 36" fill="none" xmlns="http://www.w3.org/2000/svg">
<path d="M18.0005 14.25C15.934 14.25 14.2503 15.9336 14.2503 18C14.2503 20.0664 15.934 21.75 18.0005 21.75C20.067 21.75 21.7507 20.0664 21.7507 18C21.7507 15.9336 20.067 14.25 18.0005 14.25ZM27.626 17.3945L23.9266 15.5469L25.2352 11.625C25.411 11.0938 24.9071 10.5898 24.3797 10.7695L20.4576 12.0781L18.606 8.375C18.356 7.875 17.645 7.875 17.395 8.375L15.5472 12.0742L11.6213 10.7656C11.09 10.5898 10.5861 11.0938 10.7658 11.6211L12.0744 15.543L8.37502 17.3945C7.87499 17.6445 7.87499 18.3555 8.37502 18.6055L12.0744 20.4531L10.7658 24.3789C10.59 24.9102 11.0939 25.4141 11.6213 25.2344L15.5433 23.9258L17.3911 27.625C17.6411 28.125 18.3521 28.125 18.6021 27.625L20.4498 23.9258L24.3719 25.2344C24.9032 25.4102 25.4071 24.9062 25.2274 24.3789L23.9187 20.457L27.6181 18.6094C28.126 18.3555 28.126 17.6445 27.626 17.3945ZM21.5358 21.5352C19.5865 23.4844 16.4145 23.4844 14.4652 21.5352C12.5158 19.5859 12.5158 16.4141 14.4652 14.4648C16.4145 12.5156 19.5865 12.5156 21.5358 14.4648C23.4851 16.4141 23.4851 19.5859 21.5358 21.5352Z" fill="#00F0FF"/>
</svg>
