<?xml version="1.0" encoding="UTF-8"?>
<svg id="Layer_1" data-name="Layer 1" xmlns="http://www.w3.org/2000/svg" viewBox="0 0 923.72 424.54">
  <defs>
    <style>
      .cls-1 {
        fill: #e5e2e1;
      }
    </style>
  </defs>
  <path class="cls-1" d="M460.33,293.95c18.71.74,33.67.07,47.03-13.01l19.37-18.97c3.59-3.52,7.66-7.97,12.77-9.03,7.98-1.67,16.47-.65,24.54.43,6.87.92,12.86,0,19.63.39l99.27,5.62c.91,1.65.35,3.69-.84,5.5l-88.89,135.52c-10.37,15.81-36.45,20.86-54.2,21.98-39.21,2.47-77.54,2.56-116.98,1.54l-111.34-2.89c-35.5-.92-69.88-.83-105.14.56-11.6.46-22.38.38-34.01.1l-85.42-2.08c-24.68-.6-48.39-.47-72.82,1.47-4.6.36-8.6,3.02-13.3,1.01l38.01-54.9,111.9-157.69L255.98,60.42c7.22-10.14,15.81-17.99,24.14-26.88,13.21-14.09,29.63-23.48,48.4-28.26C341.72,1.92,354.49-.09,368.4,0l118.05.74,260.85,4.95,94.17,1.09,80.61-.91c.69,0,1.49.15,1.62.4s-.35.88-.94,1.38l-167.53,141.01c-3.05-9.27,8.9-17.62-2.18-26.93-15.07-12.66-40.47-10.43-58.4-11.19l-28.81-1.22-65.28.35-73.91-1.71c-25.9-.6-50.81-.58-76.53.74-11.98.61-23.32,1.59-34.71,5.65-6.45,2.3-14.74,4.54-19.29,10.32l-86.24,109.44c-7.22,9.17-13.11,18.45-18.24,28.56-3.7,7.28-.92,15.02,6.25,18.64s14.23,5.09,22.1,5.9c25.16,2.57,49.72,3.17,75.17,4.18l65.17,2.58v-.02Z"/>
  <path class="cls-1" d="M638.28,216.63c-.75-4.37,6.54-13.84,2.77-17.53-.99-.97-3.04-2.03-5.22-2.28-35.54-4.05-74.27-1.34-110.86-7.65,6.99-3.57,13.6-2.94,21.08-3.92l149.05-19.49-9.54,24.97,114.44-6.82c4.54,10.75,7.72,20.75,10.72,32.52l-172.44.21h0Z"/>
</svg>