<svg width="33" height="15" viewBox="0 0 33 15" fill="none" xmlns="http://www.w3.org/2000/svg">
<g clip-path="url(#clip0_2319_749)">
<path d="M16.4445 10.386C17.113 10.4122 17.6474 10.3885 18.1247 9.92638L18.8167 9.25612C18.945 9.13175 19.0904 8.97452 19.2729 8.93707C19.558 8.87806 19.8613 8.9141 20.1496 8.95226C20.3951 8.98477 20.6091 8.95226 20.8509 8.96604L24.3974 9.16461C24.4299 9.22291 24.4099 9.29499 24.3674 9.35894L21.1917 14.1472C20.8213 14.7058 19.8896 14.8842 19.2554 14.9238C17.8546 15.0111 16.4853 15.0142 15.0763 14.9782L11.0986 14.8761C9.83032 14.8436 8.60208 14.8468 7.3424 14.8959C6.92798 14.9121 6.54286 14.9093 6.12738 14.8994L3.0757 14.8259C2.194 14.8047 1.34695 14.8093 0.474173 14.8779C0.309835 14.8906 0.166933 14.9846 -0.000976562 14.9135L1.35695 12.9738L5.35463 7.40223L9.14404 2.13488C9.40197 1.77661 9.70886 1.49925 10.0064 1.18515C10.4784 0.687317 11.065 0.355546 11.7356 0.186657C12.2071 0.0679406 12.6634 -0.00307744 13.1603 0.000102474L17.3777 0.0262484L26.6967 0.201144L30.061 0.239656L32.9408 0.207503C32.9654 0.207503 32.994 0.212803 32.9987 0.221636C33.0033 0.230469 32.9862 0.252729 32.9651 0.270395L26.98 5.25261C26.871 4.92508 27.2979 4.63005 26.9021 4.30111C26.3637 3.8538 25.4563 3.93259 24.8157 3.90574L23.7865 3.86264L21.4543 3.875L18.8139 3.81458C17.8886 3.79338 16.9986 3.79409 16.0798 3.84073C15.6518 3.86228 15.2467 3.89691 14.8398 4.04036C14.6093 4.12162 14.3132 4.20077 14.1506 4.40499L11.0696 8.27176C10.8117 8.59576 10.6013 8.92364 10.418 9.28085C10.2858 9.53807 10.3851 9.81155 10.6413 9.93945C10.8974 10.0674 11.1497 10.1193 11.4308 10.1479C12.3297 10.2387 13.2071 10.2599 14.1163 10.2956L16.4445 10.3868V10.386Z" fill="#00F0FF"/>
<path d="M22.802 7.6538C22.7752 7.4994 23.0356 7.1648 22.9009 7.03443C22.8656 7.00015 22.7923 6.9627 22.7144 6.95387C21.4448 6.81077 20.0611 6.90652 18.7539 6.68358C19.0036 6.55744 19.2398 6.5797 19.507 6.54507L24.8319 5.85645L24.4911 6.73869L28.5795 6.49773C28.7417 6.87755 28.8553 7.23087 28.9625 7.64674L22.802 7.65416V7.6538Z" fill="#00F0FF"/>
</g>
<defs>
<clipPath id="clip0_2319_749">
<rect width="33" height="15" fill="white"/>
</clipPath>
</defs>
</svg>
