<svg width="25" height="18" viewBox="0 0 25 18" fill="none" xmlns="http://www.w3.org/2000/svg">
<path d="M3.65625 17.6875C2.53125 16.5417 1.64062 15.2135 0.984375 13.7031C0.328125 12.1927 0 10.5729 0 8.84375C0 7.09375 0.328125 5.46354 0.984375 3.95312C1.64062 2.44271 2.53125 1.125 3.65625 0L5.4375 1.78125C4.52083 2.69792 3.80208 3.76042 3.28125 4.96875C2.76042 6.17708 2.5 7.46875 2.5 8.84375C2.5 10.2396 2.76042 11.5417 3.28125 12.75C3.80208 13.9583 4.52083 15.0104 5.4375 15.9062L3.65625 17.6875ZM7.1875 14.1562C6.52083 13.4688 5.98958 12.6719 5.59375 11.7656C5.19792 10.8594 5 9.88542 5 8.84375C5 7.78125 5.19792 6.79688 5.59375 5.89062C5.98958 4.98438 6.52083 4.19792 7.1875 3.53125L8.96875 5.3125C8.51042 5.77083 8.15104 6.30208 7.89062 6.90625C7.63021 7.51042 7.5 8.15625 7.5 8.84375C7.5 9.53125 7.63021 10.1771 7.89062 10.7812C8.15104 11.3854 8.51042 11.9167 8.96875 12.375L7.1875 14.1562ZM12.5 11.3438C11.8125 11.3438 11.224 11.099 10.7344 10.6094C10.2448 10.1198 10 9.53125 10 8.84375C10 8.15625 10.2448 7.56771 10.7344 7.07812C11.224 6.58854 11.8125 6.34375 12.5 6.34375C13.1875 6.34375 13.776 6.58854 14.2656 7.07812C14.7552 7.56771 15 8.15625 15 8.84375C15 9.53125 14.7552 10.1198 14.2656 10.6094C13.776 11.099 13.1875 11.3438 12.5 11.3438ZM17.8125 14.1562L16.0312 12.375C16.4896 11.9167 16.849 11.3854 17.1094 10.7812C17.3698 10.1771 17.5 9.53125 17.5 8.84375C17.5 8.15625 17.3698 7.51042 17.1094 6.90625C16.849 6.30208 16.4896 5.77083 16.0312 5.3125L17.8125 3.53125C18.4792 4.19792 19.0104 4.98438 19.4062 5.89062C19.8021 6.79688 20 7.78125 20 8.84375C20 9.88542 19.8021 10.8594 19.4062 11.7656C19.0104 12.6719 18.4792 13.4688 17.8125 14.1562ZM21.3438 17.6875L19.5625 15.9062C20.4792 14.9896 21.1979 13.9271 21.7188 12.7188C22.2396 11.5104 22.5 10.2188 22.5 8.84375C22.5 7.44792 22.2396 6.14583 21.7188 4.9375C21.1979 3.72917 20.4792 2.67708 19.5625 1.78125L21.3438 0C22.4688 1.125 23.3594 2.44271 24.0156 3.95312C24.6719 5.46354 25 7.09375 25 8.84375C25 10.5729 24.6719 12.1927 24.0156 13.7031C23.3594 15.2135 22.4688 16.5417 21.3438 17.6875Z" fill="#00F0FF"/>
</svg>
