<svg width="24" height="24" viewBox="0 0 24 24" fill="none" xmlns="http://www.w3.org/2000/svg">
<path d="M19.1111 13C18.6691 13 18.2452 12.8244 17.9326 12.5118C17.62 12.1993 17.4444 11.7754 17.4444 11.3333C17.4444 10.8913 17.62 10.4674 17.9326 10.1548C18.2452 9.84226 18.6691 9.66667 19.1111 9.66667C19.5531 9.66667 19.9771 9.84226 20.2896 10.1548C20.6022 10.4674 20.7778 10.8913 20.7778 11.3333C20.7778 11.7754 20.6022 12.1993 20.2896 12.5118C19.9771 12.8244 19.5531 13 19.1111 13ZM15.7778 8.55556C15.3358 8.55556 14.9118 8.37996 14.5993 8.0674C14.2867 7.75484 14.1111 7.33092 14.1111 6.88889C14.1111 6.44686 14.2867 6.02294 14.5993 5.71038C14.9118 5.39782 15.3358 5.22222 15.7778 5.22222C16.2198 5.22222 16.6437 5.39782 16.9563 5.71038C17.2689 6.02294 17.4444 6.44686 17.4444 6.88889C17.4444 7.33092 17.2689 7.75484 16.9563 8.0674C16.6437 8.37996 16.2198 8.55556 15.7778 8.55556ZM10.2222 8.55556C9.7802 8.55556 9.35627 8.37996 9.04371 8.0674C8.73115 7.75484 8.55556 7.33092 8.55556 6.88889C8.55556 6.44686 8.73115 6.02294 9.04371 5.71038C9.35627 5.39782 9.7802 5.22222 10.2222 5.22222C10.6643 5.22222 11.0882 5.39782 11.4007 5.71038C11.7133 6.02294 11.8889 6.44686 11.8889 6.88889C11.8889 7.33092 11.7133 7.75484 11.4007 8.0674C11.0882 8.37996 10.6643 8.55556 10.2222 8.55556ZM6.88889 13C6.44686 13 6.02294 12.8244 5.71038 12.5118C5.39782 12.1993 5.22222 11.7754 5.22222 11.3333C5.22222 10.8913 5.39782 10.4674 5.71038 10.1548C6.02294 9.84226 6.44686 9.66667 6.88889 9.66667C7.33092 9.66667 7.75484 9.84226 8.0674 10.1548C8.37996 10.4674 8.55556 10.8913 8.55556 11.3333C8.55556 11.7754 8.37996 12.1993 8.0674 12.5118C7.75484 12.8244 7.33092 13 6.88889 13ZM13 3C10.3478 3 7.8043 4.05357 5.92893 5.92893C4.05357 7.8043 3 10.3478 3 13C3 15.6522 4.05357 18.1957 5.92893 20.0711C7.8043 21.9464 10.3478 23 13 23C13.442 23 13.866 22.8244 14.1785 22.5118C14.4911 22.1993 14.6667 21.7754 14.6667 21.3333C14.6667 20.9 14.5 20.5111 14.2333 20.2222C13.9778 19.9222 13.8111 19.5333 13.8111 19.1111C13.8111 18.6691 13.9867 18.2452 14.2993 17.9326C14.6118 17.62 15.0358 17.4444 15.4778 17.4444H17.4444C18.9179 17.4444 20.3309 16.8591 21.3728 15.8173C22.4147 14.7754 23 13.3623 23 11.8889C23 6.97778 18.5222 3 13 3Z" fill="#00F0FF"/>
</svg>
