<svg width="11" height="11" viewBox="0 0 11 11" fill="none" xmlns="http://www.w3.org/2000/svg">
<path d="M3.5 7V3.5H7V7H3.5ZM4.66667 5.83333H5.83333V4.66667H4.66667V5.83333ZM3.5 10.5V9.33333H2.33333C2.0125 9.33333 1.73785 9.2191 1.50937 8.99063C1.2809 8.76215 1.16667 8.4875 1.16667 8.16667V7H0V5.83333H1.16667V4.66667H0V3.5H1.16667V2.33333C1.16667 2.0125 1.2809 1.73785 1.50937 1.50937C1.73785 1.2809 2.0125 1.16667 2.33333 1.16667H3.5V0H4.66667V1.16667H5.83333V0H7V1.16667H8.16667C8.4875 1.16667 8.76215 1.2809 8.99063 1.50937C9.2191 1.73785 9.33333 2.0125 9.33333 2.33333V3.5H10.5V4.66667H9.33333V5.83333H10.5V7H9.33333V8.16667C9.33333 8.4875 9.2191 8.76215 8.99063 8.99063C8.76215 9.2191 8.4875 9.33333 8.16667 9.33333H7V10.5H5.83333V9.33333H4.66667V10.5H3.5ZM8.16667 8.16667V2.33333H2.33333V8.16667H8.16667Z" fill="#EBB2FF"/>
</svg>
