<?xml version="1.0" encoding="UTF-8"?>
<svg id="Layer_1" data-name="Layer 1" xmlns="http://www.w3.org/2000/svg" viewBox="0 0 583.57 487.23">
  <defs>
    <style>
      .cls-1 {
        fill: #b4bec5;
      }

      .cls-2 {
        fill: #dfe7ee;
      }

      .cls-3 {
        fill: #97eff8;
      }

      .cls-4 {
        fill: #25272b;
      }

      .cls-5 {
        fill: #feb529;
      }
    </style>
  </defs>
  <g id="Generative_Object" data-name="Generative Object">
    <path class="cls-2" d="M497.23,157.02c.26,6.97,2.43,13.66,3.31,21.29,2.14,18.59,2.42,37.07-1.13,55.06-6.76,34.3-20.46,67.03-44.15,94.6-29.64,34.49-68.83,58.87-112.85,69.65-79.03,19.34-162.88-8.17-216.3-69.32-22.77-26.07-37.32-57.23-43.91-91.14-.23-1.19-.73-2.57-1.51-2.14.72-1.73.4-3.2.05-5.34-4.41-26.64-1.31-53.43,4.2-79.12C116.73,46.7,218.42-15.3,326.82,3.27c46.1,7.9,87.84,30.68,120.27,64.52,23.76,24.79,40.37,54.36,48.88,87.34.3,1.15.74,1.76,1.25,1.89h.01Z"/>
    <path class="cls-5" d="M303.58,311.78c82.92-.94,150.2-48.2,192.47-117.56-42.09-68.24-110.7-109.51-188.82-114.88-12.56-.82-24.69-.82-37.22-.02-28.72,1.85-55.97,9.02-82.2,21.19-45.51,21.11-77.08,52-104.1,93.99,25.14,40.19,57.35,72.54,99.69,92.86,36.62,17.57,80.03,26.91,120.19,24.42h-.01Z"/>
    <path class="cls-2" d="M546.33,481.69c.23-2.07-2.55-2.06-3.69-3.83l-1.17-1.82c2.38,3.7-10.56-7.07-7.98-4.55-7.41-7.21-14.84-13.53-21.99-21.29-13.08-14.19-24.97-28.29-34.56-44.92-5.52-9.57-8.03-19.56-8.32-30.4-.23-8.91,2.79-17.35,6.83-25,.68-1.28,1.57-2.08,1-3.37,13.26-10.02,29.06-30.39,45.46-15,35.36,33.17,55.35,92.07,57.23,139.55.4,9.96-8.71,16.74-16.77,16.13-6.7-.51-11.04-3.53-16.04-5.52v.02Z"/>
    <path class="cls-2" d="M55.41,85.43c-.47.18-.95-.01-1.13.3-.4.71-.84,1.66-.56,2.56,5.68,18.3,8.62,50.56,6.91,69.69-1.42,15.95-2.79,31.06-5.08,46.86-1.43,9.89-1.65,20.11,2.09,29.34,2.28,5.62,7.28,8.39,11.74,11.82-4.38,4.13-14.1,4.61-12.88,7.58-16.28,3.21-31.61-4.23-40.35-18.4-5.99-9.7-8.92-19.99-10.85-31.3C1.05,179.02.19,154.76.03,129.48c-.16-26.75.18-52.52,3.49-79,.84-6.67,1.07-12.95,3.91-19.73,19.53,15.58,35.09,34.44,47.97,54.68h.01Z"/>
    <path class="cls-2" d="M111.79,353.97c.7,1.41-.49,2.08-1.45.6-1.81-1.72-3.23-4.24-6.08-3.24,7,15.95,6.81,34.34-1.04,50.2-4.51,9.11-9.3,17.2-15.21,25.12-12.03,16.13-34.12,40.95-50.67,51.9-10.07,6.66-24.56,10.62-31.97-1.1-5.03-7.96.31-10.66-3.78-10.78.54-13.52,2.98-26.02,6.01-39.42,6.87-30.34,19.28-58.4,37.95-83.37,8.7-11.63,20.35-24.04,34.95-14.81,11.6,7.33,21.55,16.09,31.29,24.9h0Z"/>
    <path class="cls-2" d="M502.54,239.74c1.19-3.61,2.87,5.52,7.38,3.48,8.3-3.77,15.15-14.36,17.14-22.77,2.5-10.63,2.95-21.22,2.92-32.11l-.14-44.16c-.07-21.21,1.27-41.65,4.91-62.31.17-.98-2.18-2.77-1.29-3.71,11.61-16.38,23.68-32.98,40.62-45.85.82-.63,1.33-1.55,2.16-1.23.51.2,1.27.77,1.45,1.99,4.21,27.81,6.02,55.3,5.87,83.49l-.23,42.38c-.08,15.21-1.3,29.89-3.09,44.98-1.29,10.91-4.28,20.97-10.02,30.33-9.77,15.93-27.48,23.04-45.18,18.92-8.85-2.06-17.54-6-22.51-13.43h.01Z"/>
    <path class="cls-2" d="M502.54,239.74c-1.33-1.98-2.82-3.88-3.13-6.37,3.55-17.99,3.27-36.47,1.13-55.06-.88-7.62-3.05-14.32-3.31-21.29,7.02-28.28,19.48-55.25,36.22-78.87-.89.95,1.46,2.73,1.29,3.71-3.64,20.66-4.98,41.1-4.91,62.31l.14,44.16c.03,10.89-.42,21.48-2.92,32.11-1.98,8.42-8.83,19-17.14,22.77-4.51,2.05-6.18-7.08-7.38-3.48h0Z"/>
    <path class="cls-2" d="M55.41,85.43c13.13,20.63,22.13,42.6,29.54,65.12-5.51,25.68-8.61,52.48-4.2,79.12.35,2.14.67,3.61-.05,5.34-2.12,5.12-4.9,8.98-9.22,11.72-4.48,2.83-9.73,5.83-14.98,6.87-1.22-2.97,8.5-3.45,12.88-7.58-4.46-3.43-9.46-6.2-11.74-11.82-3.75-9.23-3.52-19.45-2.09-29.34,2.28-15.81,3.65-30.92,5.08-46.86,1.71-19.13-1.23-51.39-6.91-69.69-.28-.9.16-1.86.56-2.56.18-.31.67-.13,1.13-.3v-.02Z"/>
    <path class="cls-1" d="M111.79,353.97c7.23,6.54,14.6,12.28,20.78,19.48,5.14,5.99,6.14,13.13,2.45,20.18-17.96,34.34-70.32,80.59-107.87,92-5.84,1.78-11.02,2.36-16.44-.78-6.41-3.71-10.03-11.91-9.11-18.18,4.09.11-1.24,2.81,3.78,10.78,7.4,11.72,21.9,7.76,31.97,1.1,16.56-10.95,38.65-35.76,50.67-51.9,5.91-7.92,10.7-16.01,15.21-25.12,7.85-15.86,8.03-34.25,1.04-50.2,2.85-1,4.27,1.52,6.08,3.24.96,1.48,2.15.81,1.45-.6h-.01Z"/>
    <path class="cls-1" d="M476.46,346.52c.57,1.28-.32,2.09-1,3.37-4.04,7.65-7.07,16.09-6.83,25,.28,10.84,2.79,20.83,8.32,30.4,9.6,16.63,21.48,30.73,34.56,44.92,7.15,7.76,14.59,14.07,21.99,21.29-2.58-2.52,10.36,8.25,7.98,4.55l1.17,1.82c1.14,1.77,3.92,1.76,3.69,3.83-37.91-15-79.86-51.83-101.76-86.4-4.57-7.21-4.26-15.64,1.38-21.52,9.56-9.96,19.42-19.6,30.51-27.25h0Z"/>
    <path class="cls-4" d="M303.58,311.78c-40.16,2.5-83.57-6.84-120.19-24.42-42.34-20.32-74.55-52.67-99.69-92.86,27.03-41.99,58.59-72.88,104.1-93.99,26.23-12.17,53.49-19.34,82.2-21.19,12.54-.8,24.66-.8,37.22.02,78.12,5.37,146.73,46.64,188.82,114.88-42.27,69.36-109.55,116.61-192.47,117.56h.01ZM193.42,151.56v28.5c-.09.43.15.91.95.92l30.48.16-.16,31.15,29.57-.38v-30.45l-29.41-.31-.08-30.49-31.11.06c-.23,0-.28.78-.24.86v-.02ZM357.06,151.55c-1.51,9.27-.2,18.89-.72,28.37-.02.4-.31.8-.31,1.22l-29.1.22.23,30.88,28.91-.15-.04-30.95,31.4-.16v31.24h29.4l.03-29.45c0-.75-.39-1.32-.93-.91-8.69-1.64-17.75-.2-26.66-.73-.59-.04-1.21-.16-1.84-.16v-30.33l-30.26.02c-.35.24-.34.76-.11.88h0ZM164.04,181.9c-2.18,9.58-.16,19.75-1.02,30.34l29.21-.22c1.56-.01,1.02-2.02,1.01-2.73l-.19-27.68c-10.07-.59-19.73-1.1-29.01.29Z"/>
    <polygon class="cls-3" points="224.84 181.13 254.25 181.44 254.26 211.89 224.68 212.27 224.84 181.13"/>
    <polygon class="cls-3" points="356.03 181.14 356.07 212.09 327.16 212.23 326.93 181.35 356.03 181.14"/>
    <path class="cls-3" d="M193.24,209.29c-.49-.45-1.14.02-1.2.16l-.66,1.76-27.28.1-.07-29.41c9.28-1.38,18.94-.87,29.01-.29l.19,27.68h.01Z"/>
    <polygon class="cls-3" points="193.43 180.05 193.42 151.56 223.79 151.57 223.79 180.04 193.43 180.05"/>
    <path class="cls-3" d="M356.34,179.92c.52-9.48-.79-19.1.72-28.37l29.44.02v28.49l-30.16-.14Z"/>
    <path class="cls-3" d="M415.92,181.86v29.43h-27.57v-29.16c.73-.33,1.06-.59.91-1,8.91.53,17.97-.91,26.66.73h0Z"/>
    <path class="cls-3" d="M224.84,181.13l-30.48-.16c-.8,0-1.04-.49-.94-.92h30.36v-28.48h-30.37c-.04-.09,0-.87.24-.87l31.11-.06.08,30.49h0Z"/>
    <path class="cls-3" d="M387.42,180.97l-31.4.16c0-.41.29-.81.31-1.22l30.15.14v-28.49l-29.44-.02c-.23-.12-.24-.64.11-.88l30.24-.02v30.33h.03Z"/>
    <path class="cls-3" d="M389.26,181.13c.15.42-.18.67-.92,1v29.16h27.57v-29.43c.56-.41.95.16.95.91l-.03,29.45h-29.39v-31.24c.62,0,1.24.12,1.83.16h-.01Z"/>
    <path class="cls-3" d="M193.24,209.29c0,.71.55,2.72-1.01,2.73l-29.21.22c.86-10.59-1.17-20.76,1.02-30.34l.07,29.41,27.28-.1.66-1.76c.05-.14.71-.61,1.2-.16h-.01Z"/>
  </g>
</svg>