<svg width="20" height="20" viewBox="0 0 20 20" fill="none" xmlns="http://www.w3.org/2000/svg">
<path d="M10.3535 0C8.47885 0.000332664 6.63948 0.492072 5.03157 1.42276C3.42366 2.35345 2.10752 3.68819 1.22355 5.28458C0.33959 6.88098 -0.0790454 8.67915 0.0123044 10.4873C0.103654 12.2954 0.701563 14.0457 1.74225 15.5514C2.78294 17.0572 4.22737 18.2618 5.92146 19.037C7.61555 19.8121 9.49576 20.1286 11.3615 19.9527C13.2273 19.7768 15.0086 19.1151 16.5155 18.0382C18.0223 16.9613 19.1982 15.5097 19.9177 13.838C20.2708 13.018 19.4248 12.194 18.5736 12.528C17.1147 13.0987 15.4948 13.1576 13.9956 12.6944C12.4964 12.2313 11.2127 11.2754 10.3677 9.99302C9.52269 8.71061 9.16979 7.18278 9.37038 5.67515C9.57097 4.16753 10.3124 2.77547 11.4656 1.741L11.5454 1.661C12.116 1.031 11.6624 0.00800001 10.7604 0.00800001H10.485L10.4146 0.00199997L10.3535 0Z" fill="#00F0FF"/>
</svg>
